Coordinates
version=1
nRows=65
nColumns=12
inDegrees=yes

Units are S.I. units (second, meters, Newtons, ...)
Angles are in degrees

endheader
time	SC_y	SC_z	SC_x	AC_y	AC_z	AC_x	GH_y	GH_z	GH_yy	EL_x	PS_y
       0.0              -30.83          14.17          67.53          65.67         -12.87           3.04         -24.04          63.59          118.4          29.79          150.8
    0.0191              -30.83          14.17          67.52          65.67         -12.87          3.039         -24.02          63.59          118.4           29.8          150.8
    0.0382              -30.83          14.16          67.51          65.67         -12.86          3.039         -24.01           63.6          118.4          29.82          150.7
    0.0573              -30.83          14.16          67.51          65.66         -12.86          3.038         -23.99           63.6          118.4          29.84          150.7
    0.0764              -30.83          14.16           67.5          65.66         -12.86          3.037         -23.97           63.6          118.4          29.86          150.7
    0.0955              -30.83          14.16          67.49          65.65         -12.85          3.036         -23.95          63.61          118.4          29.88          150.7
    0.1146              -30.82          14.15          67.48          65.65         -12.85          3.035         -23.93          63.61          118.4           29.9          150.7
    0.1337              -30.82          14.15          67.47          65.64         -12.85          3.033         -23.91          63.61          118.4          29.92          150.6
    0.1528              -30.82          14.15          67.46          65.64         -12.84          3.032         -23.88          63.62          118.4          29.95          150.6
    0.1719              -30.82          14.14          67.44          65.63         -12.84          3.031         -23.86          63.62          118.4          29.98          150.6
     0.191              -30.81          14.14          67.43          65.63         -12.83          3.029         -23.83          63.63          118.3           30.0          150.5
    0.2101              -30.81          14.13          67.42          65.62         -12.83          3.028          -23.8          63.63          118.3          30.03          150.5
    0.2292              -30.81          14.13           67.4          65.61         -12.82          3.026         -23.77          63.64          118.3          30.07          150.5
    0.2483               -30.8          14.12          67.39          65.61         -12.81          3.024         -23.73          63.64          118.3           30.1          150.4
    0.2674               -30.8          14.12          67.37           65.6         -12.81          3.022          -23.7          63.65          118.3          30.14          150.4
    0.2865              -30.79          14.11          67.35          65.59          -12.8           3.02         -23.66          63.66          118.3          30.19          150.3
    0.3056              -30.79           14.1          67.33          65.58         -12.79          3.018         -23.61          63.67          118.3          30.23          150.3
    0.3247              -30.78           14.1          67.31          65.57         -12.78          3.015         -23.56          63.67          118.3          30.28          150.2
    0.3438              -30.78          14.09          67.29          65.56         -12.77          3.013         -23.51          63.68          118.3          30.34          150.2
    0.3629              -30.77          14.08          67.26          65.55         -12.76           3.01         -23.45          63.69          118.3           30.4          150.1
     0.382              -30.77          14.07          67.23          65.53         -12.75          3.006         -23.39          63.71          118.3          30.46          150.0
    0.4011              -30.76          14.06           67.2          65.52         -12.74          3.003         -23.32          63.72          118.2          30.53          149.9
    0.4202              -30.75          14.05          67.16           65.5         -12.73          2.999         -23.24          63.73          118.2          30.61          149.8
    0.4393              -30.74          14.03          67.12          65.49         -12.71          2.994         -23.16          63.75          118.2           30.7          149.7
    0.4584              -30.73          14.02          67.08          65.47         -12.69          2.989         -23.06          63.76          118.2           30.8          149.6
    0.4775              -30.72           14.0          67.03          65.44         -12.68          2.984         -22.96          63.78          118.2          30.91          149.5
    0.4966              -30.71          13.98          66.98          65.42         -12.65          2.978         -22.84           63.8          118.1          31.03          149.4
    0.5157              -30.69          13.96          66.91          65.39         -12.63          2.971         -22.71          63.83          118.1          31.17          149.2
    0.5348              -30.68          13.94          66.85          65.36          -12.6          2.963         -22.55          63.85          118.1          31.32          149.0
    0.5539              -30.66          13.91          66.77          65.32         -12.57          2.954         -22.38          63.88          118.0           31.5          148.8
     0.573              -30.64          13.88          66.68          65.28         -12.54          2.944         -22.19          63.92          118.0           31.7          148.6
    0.5921              -30.61          13.85          66.57          65.23          -12.5          2.932         -21.96          63.96          117.9          31.94          148.3
    0.6112              -30.59          13.81          66.46          65.18         -12.45          2.918         -21.71           64.0          117.9           32.2          148.0
    0.6303              -30.55          13.76          66.32          65.11          -12.4          2.903          -21.4          64.06          117.8          32.51          147.7
    0.6494              -30.52          13.71          66.16          65.04         -12.34          2.884         -21.05          64.12          117.7          32.88          147.2
    0.6685              -30.47          13.64          65.97          64.95         -12.26          2.863         -20.64          64.19          117.7          33.31          146.7
    0.6876              -30.42          13.56          65.74          64.85         -12.17          2.837         -20.15          64.28          117.6          33.82          146.2
    0.7067              -30.36          13.47          65.47          64.72         -12.07          2.806         -19.55          64.39          117.4          34.43          145.5
    0.7258              -30.28          13.36          65.14          64.57         -11.94          2.769         -18.84          64.51          117.3          35.17          144.6
    0.7449              -30.19          13.23          64.74          64.38         -11.78          2.723         -17.97          64.67          117.1          36.07          143.6
     0.764              -30.07          13.06          64.24          64.16         -11.59          2.667         -16.89          64.86          116.8          37.19          142.3
    0.7831              -29.93          12.85          63.63          63.87         -11.35          2.597         -15.55           65.1          116.6          38.58          140.7
    0.8022              -29.75          12.59          62.85          63.51         -11.05          2.509         -13.85           65.4          116.2          40.33          138.7
    0.8213              -29.52          12.25          61.86          63.06         -10.66          2.396          -11.7          65.78          115.7          42.55          136.1
    0.8404              -29.23          11.82          60.59          62.47         -10.17          2.253         -8.949          66.27          115.1           45.4          132.9
    0.8595              -28.85          11.27          58.97          61.72         -9.538          2.068         -5.415           66.9          114.4          49.06          128.7
    0.8786              -28.37          10.57           56.9          60.77         -8.731          1.833        -0.9016           67.7          113.4          53.73          123.3
    0.8977              -27.77          9.687          54.29          59.56         -7.716          1.536          4.774          68.71          112.2           59.6          116.6
    0.9168              -27.03          8.612          51.11           58.1         -6.478          1.175          11.69          69.94          110.7          66.76          108.4
    0.9359              -26.18          7.364          47.42           56.4         -5.045         0.7571          19.71          71.36          108.9          75.05          98.84
     0.955              -25.26          6.014          43.44          54.56         -3.492          0.304          28.39           72.9          107.1          84.03          88.54
    0.9741              -24.34          4.664          39.45          52.71         -1.939         -0.149          37.07          74.44          105.2          93.02          78.23
    0.9932              -23.48          3.417          35.76          51.01        -0.5051        -0.5674          45.09          75.87          103.5          101.3          68.71
     1.012              -22.75          2.341          32.58          49.55          0.732        -0.9284           52.0          77.09          102.0          108.5           60.5
     1.031              -22.14          1.458          29.98          48.34          1.747         -1.225          57.68           78.1          100.7          114.3          53.76
      1.05              -21.66         0.7557           27.9          47.39          2.555          -1.46          62.19           78.9          99.77          119.0           48.4
      1.07              -21.29          0.206          26.28          46.64          3.187         -1.645          65.73          79.53           99.0          122.7           44.2
     1.089              -20.99        -0.2224          25.01          46.05          3.679         -1.788          68.48          80.02          98.41          125.5          40.94
     1.108              -20.77         -0.557          24.02           45.6          4.064         -1.901          70.63           80.4          97.94          127.7          38.38
     1.127              -20.59        -0.8203          23.25          45.24          4.367         -1.989          72.32           80.7          97.58          129.5          36.37
     1.146              -20.44         -1.029          22.63          44.95          4.607         -2.059          73.67          80.94          97.29          130.9          34.78
     1.165              -20.33         -1.197          22.13          44.73            4.8         -2.115          74.74          81.13          97.05          132.0           33.5
     1.184              -20.24         -1.333          21.73          44.54          4.956         -2.161          75.62          81.29          96.87          132.9          32.46
     1.203              -20.16         -1.444           21.4          44.39          5.084         -2.198          76.33          81.41          96.71          133.6          31.61
     1.222               -20.1         -1.536          21.13          44.26          5.189         -2.229          76.92          81.52          96.58          134.3          30.91
